<?xml version="1.0" encoding="UTF-8" standalone="no"?>
<svg xmlns="http://www.w3.org/2000/svg" xmlns:xlink="http://www.w3.org/1999/xlink" contentStyleType="text/css" height="337px" preserveAspectRatio="none" style="width:314px;height:337px;background:#FFFFFF;" version="1.1" viewBox="0 0 314 337" width="314px" zoomAndPan="magnify"><defs/><g><rect fill="none" height="26.2969" id="_title" style="stroke:none;stroke-width:1.0;" width="213" x="43.75" y="5"/><text fill="#000000" font-family="sans-serif" font-size="14" font-weight="bold" lengthAdjust="spacing" textLength="203" x="48.75" y="22.9951">UML des classes Modèles</text><!--MD5=[3f5a53a6d77ea0ec95f75b4f5ff5221a]
class WalletEntity--><g id="elem_WalletEntity"><rect codeLine="3" fill="#F1F1F1" height="80.5938" id="WalletEntity" rx="2.5" ry="2.5" style="stroke:#181818;stroke-width:0.5;" width="122" x="87.5" y="250.2969"/><ellipse cx="102.5" cy="266.2969" fill="#ADD1B2" rx="11" ry="11" style="stroke:#181818;stroke-width:1.0;"/><path d="M104.8438,261.9688 C103.9063,261.5313 103.3125,261.3906 102.4375,261.3906 C99.8125,261.3906 97.8125,263.4688 97.8125,266.1875 L97.8125,267.3125 C97.8125,269.8906 99.9219,271.7813 102.8125,271.7813 C104.0313,271.7813 105.1875,271.4844 105.9375,270.9375 C106.5156,270.5313 106.8438,270.0781 106.8438,269.6875 C106.8438,269.2344 106.4531,268.8438 105.9844,268.8438 C105.7656,268.8438 105.5625,268.9219 105.375,269.1094 C104.9219,269.5938 104.9219,269.5938 104.7344,269.6875 C104.3125,269.9531 103.625,270.0781 102.8594,270.0781 C100.8125,270.0781 99.5156,268.9844 99.5156,267.2813 L99.5156,266.1875 C99.5156,264.4063 100.7656,263.0938 102.5,263.0938 C103.0781,263.0938 103.6875,263.25 104.1563,263.5 C104.6406,263.7813 104.8125,264 104.9063,264.4063 C104.9688,264.8125 105,264.9375 105.1406,265.0625 C105.2813,265.2031 105.5156,265.3125 105.7344,265.3125 C106,265.3125 106.2656,265.1719 106.4375,264.9531 C106.5469,264.7969 106.5781,264.6094 106.5781,264.1875 L106.5781,262.7656 C106.5781,262.3281 106.5625,262.2031 106.4688,262.0469 C106.3125,261.7813 106.0313,261.6406 105.7344,261.6406 C105.4375,261.6406 105.2344,261.7344 105.0156,262.0469 L104.8438,261.9688 Z " fill="#000000"/><text fill="#000000" font-family="sans-serif" font-size="14" lengthAdjust="spacing" textLength="90" x="116.5" y="271.1436">WalletEntity</text><line style="stroke:#181818;stroke-width:0.5;" x1="88.5" x2="208.5" y1="282.2969" y2="282.2969"/><rect fill="none" height="6" style="stroke:#C82930;stroke-width:1.0;" width="6" x="95.5" y="292.9453"/><text fill="#000000" font-family="sans-serif" font-size="14" lengthAdjust="spacing" textLength="13" x="107.5" y="299.292">id</text><rect fill="none" height="6" style="stroke:#C82930;stroke-width:1.0;" width="6" x="95.5" y="309.2422"/><text fill="#000000" font-family="sans-serif" font-size="14" lengthAdjust="spacing" textLength="56" x="107.5" y="315.5889">balance</text><line style="stroke:#181818;stroke-width:0.5;" x1="88.5" x2="208.5" y1="322.8906" y2="322.8906"/></g><!--MD5=[c23d9781ab907d98e153c7f0d747c66c]
class UserEntity--><g id="elem_UserEntity"><rect codeLine="8" fill="#F1F1F1" height="145.7813" id="UserEntity" rx="2.5" ry="2.5" style="stroke:#181818;stroke-width:0.5;" width="107" x="7" y="44.2969"/><ellipse cx="22" cy="60.2969" fill="#ADD1B2" rx="11" ry="11" style="stroke:#181818;stroke-width:1.0;"/><path d="M24.3438,55.9688 C23.4063,55.5313 22.8125,55.3906 21.9375,55.3906 C19.3125,55.3906 17.3125,57.4688 17.3125,60.1875 L17.3125,61.3125 C17.3125,63.8906 19.4219,65.7813 22.3125,65.7813 C23.5313,65.7813 24.6875,65.4844 25.4375,64.9375 C26.0156,64.5313 26.3438,64.0781 26.3438,63.6875 C26.3438,63.2344 25.9531,62.8438 25.4844,62.8438 C25.2656,62.8438 25.0625,62.9219 24.875,63.1094 C24.4219,63.5938 24.4219,63.5938 24.2344,63.6875 C23.8125,63.9531 23.125,64.0781 22.3594,64.0781 C20.3125,64.0781 19.0156,62.9844 19.0156,61.2813 L19.0156,60.1875 C19.0156,58.4063 20.2656,57.0938 22,57.0938 C22.5781,57.0938 23.1875,57.25 23.6563,57.5 C24.1406,57.7813 24.3125,58 24.4063,58.4063 C24.4688,58.8125 24.5,58.9375 24.6406,59.0625 C24.7813,59.2031 25.0156,59.3125 25.2344,59.3125 C25.5,59.3125 25.7656,59.1719 25.9375,58.9531 C26.0469,58.7969 26.0781,58.6094 26.0781,58.1875 L26.0781,56.7656 C26.0781,56.3281 26.0625,56.2031 25.9688,56.0469 C25.8125,55.7813 25.5313,55.6406 25.2344,55.6406 C24.9375,55.6406 24.7344,55.7344 24.5156,56.0469 L24.3438,55.9688 Z " fill="#000000"/><text fill="#000000" font-family="sans-serif" font-size="14" lengthAdjust="spacing" textLength="75" x="36" y="65.1436">UserEntity</text><line style="stroke:#181818;stroke-width:0.5;" x1="8" x2="113" y1="76.2969" y2="76.2969"/><rect fill="none" height="6" style="stroke:#C82930;stroke-width:1.0;" width="6" x="15" y="86.9453"/><text fill="#000000" font-family="sans-serif" font-size="14" lengthAdjust="spacing" textLength="13" x="27" y="93.292">id</text><rect fill="none" height="6" style="stroke:#C82930;stroke-width:1.0;" width="6" x="15" y="103.2422"/><text fill="#000000" font-family="sans-serif" font-size="14" lengthAdjust="spacing" textLength="70" x="27" y="109.5889">firstname</text><rect fill="none" height="6" style="stroke:#C82930;stroke-width:1.0;" width="6" x="15" y="119.5391"/><text fill="#000000" font-family="sans-serif" font-size="14" lengthAdjust="spacing" textLength="66" x="27" y="125.8857">lastname</text><rect fill="none" height="6" style="stroke:#C82930;stroke-width:1.0;" width="6" x="15" y="135.8359"/><text fill="#000000" font-family="sans-serif" font-size="14" lengthAdjust="spacing" textLength="39" x="27" y="142.1826">email</text><rect fill="none" height="6" style="stroke:#C82930;stroke-width:1.0;" width="6" x="15" y="152.1328"/><text fill="#000000" font-family="sans-serif" font-size="14" lengthAdjust="spacing" textLength="67" x="27" y="158.4795">password</text><rect fill="none" height="6" style="stroke:#C82930;stroke-width:1.0;" width="6" x="15" y="168.4297"/><text fill="#000000" font-family="sans-serif" font-size="14" lengthAdjust="spacing" textLength="69" x="27" y="174.7764">birthdate</text><line style="stroke:#181818;stroke-width:0.5;" x1="8" x2="113" y1="182.0781" y2="182.0781"/></g><!--MD5=[3510880d45a8542228ce3f9aa96b2530]
class PaymentEntity--><g id="elem_PaymentEntity"><rect codeLine="17" fill="#F1F1F1" height="113.1875" id="PaymentEntity" rx="2.5" ry="2.5" style="stroke:#181818;stroke-width:0.5;" width="140" x="167.5" y="60.7969"/><ellipse cx="182.5" cy="76.7969" fill="#ADD1B2" rx="11" ry="11" style="stroke:#181818;stroke-width:1.0;"/><path d="M184.8438,72.4688 C183.9063,72.0313 183.3125,71.8906 182.4375,71.8906 C179.8125,71.8906 177.8125,73.9688 177.8125,76.6875 L177.8125,77.8125 C177.8125,80.3906 179.9219,82.2813 182.8125,82.2813 C184.0313,82.2813 185.1875,81.9844 185.9375,81.4375 C186.5156,81.0313 186.8438,80.5781 186.8438,80.1875 C186.8438,79.7344 186.4531,79.3438 185.9844,79.3438 C185.7656,79.3438 185.5625,79.4219 185.375,79.6094 C184.9219,80.0938 184.9219,80.0938 184.7344,80.1875 C184.3125,80.4531 183.625,80.5781 182.8594,80.5781 C180.8125,80.5781 179.5156,79.4844 179.5156,77.7813 L179.5156,76.6875 C179.5156,74.9063 180.7656,73.5938 182.5,73.5938 C183.0781,73.5938 183.6875,73.75 184.1563,74 C184.6406,74.2813 184.8125,74.5 184.9063,74.9063 C184.9688,75.3125 185,75.4375 185.1406,75.5625 C185.2813,75.7031 185.5156,75.8125 185.7344,75.8125 C186,75.8125 186.2656,75.6719 186.4375,75.4531 C186.5469,75.2969 186.5781,75.1094 186.5781,74.6875 L186.5781,73.2656 C186.5781,72.8281 186.5625,72.7031 186.4688,72.5469 C186.3125,72.2813 186.0313,72.1406 185.7344,72.1406 C185.4375,72.1406 185.2344,72.2344 185.0156,72.5469 L184.8438,72.4688 Z " fill="#000000"/><text fill="#000000" font-family="sans-serif" font-size="14" lengthAdjust="spacing" textLength="108" x="196.5" y="81.6436">PaymentEntity</text><line style="stroke:#181818;stroke-width:0.5;" x1="168.5" x2="306.5" y1="92.7969" y2="92.7969"/><rect fill="none" height="6" style="stroke:#C82930;stroke-width:1.0;" width="6" x="175.5" y="103.4453"/><text fill="#000000" font-family="sans-serif" font-size="14" lengthAdjust="spacing" textLength="13" x="187.5" y="109.792">id</text><rect fill="none" height="6" style="stroke:#C82930;stroke-width:1.0;" width="6" x="175.5" y="119.7422"/><text fill="#000000" font-family="sans-serif" font-size="14" lengthAdjust="spacing" textLength="37" x="187.5" y="126.0889">value</text><rect fill="none" height="6" style="stroke:#C82930;stroke-width:1.0;" width="6" x="175.5" y="136.0391"/><text fill="#000000" font-family="sans-serif" font-size="14" lengthAdjust="spacing" textLength="33" x="187.5" y="142.3857">date</text><rect fill="none" height="6" style="stroke:#C82930;stroke-width:1.0;" width="6" x="175.5" y="152.3359"/><text fill="#000000" font-family="sans-serif" font-size="14" lengthAdjust="spacing" textLength="63" x="187.5" y="158.6826">message</text><line style="stroke:#181818;stroke-width:0.5;" x1="168.5" x2="306.5" y1="165.9844" y2="165.9844"/></g><!--MD5=[dede714da99806944191ac8c79d1ff27]
link PaymentEntity to WalletEntity--><g id="link_PaymentEntity_WalletEntity"><path codeLine="24" d="M203.0761,184.6288 C203.0761,184.6288 174.6106,239.4821 174.6106,239.4821 " fill="none" id="PaymentEntity-WalletEntity" style="stroke:#181818;stroke-width:1.0;"/><polygon fill="#181818" points="169.083,250.1332,175.3972,246.6501,174.6106,239.4821,168.2964,242.9651,169.083,250.1332" style="stroke:#181818;stroke-width:1.0;"/><polygon fill="none" points="208.604,173.9779,202.2897,177.4607,203.0761,184.6288,209.3904,181.146,208.604,173.9779" style="stroke:#181818;stroke-width:1.0;"/><text fill="#000000" font-family="sans-serif" font-size="13" lengthAdjust="spacing" textLength="7" x="197.6557" y="193.8635">*</text><text fill="#000000" font-family="sans-serif" font-size="13" lengthAdjust="spacing" textLength="8" x="163.8296" y="239.2676">2</text></g><!--MD5=[e25fd29e3fe930608ea468d401878ff7]
link UserEntity to WalletEntity--><g id="link_UserEntity_WalletEntity"><path codeLine="25" d="M103.0438,201.2071 C103.0438,201.2071 122.5465,239.2173 122.5465,239.2173 " fill="none" id="UserEntity-WalletEntity" style="stroke:#181818;stroke-width:1.0;"/><polygon fill="#181818" points="128.025,249.8937,128.8445,242.7293,122.5465,239.2173,121.7269,246.3816,128.025,249.8937" style="stroke:#181818;stroke-width:1.0;"/><polygon fill="#181818" points="97.5649,190.5309,96.7456,197.6953,103.0438,201.2071,103.8631,194.0427,97.5649,190.5309" style="stroke:#181818;stroke-width:1.0;"/><text fill="#000000" font-family="sans-serif" font-size="13" lengthAdjust="spacing" textLength="8" x="92.6131" y="210.0566">1</text><text fill="#000000" font-family="sans-serif" font-size="13" lengthAdjust="spacing" textLength="8" x="116.1243" y="239.2893">1</text></g><!--MD5=[e700eb8aaf8fe0cbc713579a7c87838e]
reverse link UserEntity to UserEntity--><g id="link_UserEntity_UserEntity"><path codeLine="26" d="M127.255,86.5869 C139.992,90.2579 149,100.4949 149,117.2969 C149,139.4689 133.314,150.2079 114.074,149.5159 " fill="none" id="UserEntity-backto-UserEntity" style="stroke:#181818;stroke-width:1.0;"/><polygon fill="none" points="114.074,85.0779,119.5801,89.7343,125.9961,86.4427,120.49,81.7862,114.074,85.0779" style="stroke:#181818;stroke-width:1.0;"/><text fill="#000000" font-family="sans-serif" font-size="13" lengthAdjust="spacing" textLength="7" x="122.1" y="76.584">*</text><text fill="#000000" font-family="sans-serif" font-size="13" lengthAdjust="spacing" textLength="7" x="122.1" y="150.0836">*</text></g><!--MD5=[5c65fe9196d212d28d4ce03acfdcea24]
@startuml
title UML des classes Modèles

Class WalletEntity {
	- id
	- balance
}

Class UserEntity {
	- id
	- firstname
	- lastname
	- email
	- password
	- birthdate
}

Class PaymentEntity {
	- id
	- value
	- date
	- message
}

PaymentEntity "*" o- -* "2" WalletEntity
UserEntity "1" *- -* "1" WalletEntity
UserEntity "*" o- - "*" UserEntity
@enduml

PlantUML version 1.2022.8beta6(Unknown compile time)
(GPL source distribution)
Java Runtime: Java(TM) SE Runtime Environment
JVM: Java HotSpot(TM) 64-Bit Server VM
Default Encoding: UTF-8
Language: en
Country: US
--></g></svg>